<svg width="1451" height="1217" viewBox="0 0 1451 1217" fill="none" xmlns="http://www.w3.org/2000/svg">
<rect width="1451" height="1217" fill="white"/>
<g clip-path="url(#clip0_60_106)">
<path d="M725.614 911.24C914.383 911.24 1067.41 775.408 1067.41 607.85C1067.41 440.293 914.383 304.46 725.614 304.46C536.845 304.46 383.817 440.293 383.817 607.85C383.817 775.408 536.845 911.24 725.614 911.24Z" fill="white" stroke="#231F20" stroke-miterlimit="10"/>
<path d="M851.538 625.258C862.358 566.091 817.093 510.342 750.436 500.737C683.78 491.133 620.972 531.312 610.152 590.478C599.332 649.645 644.597 705.395 711.254 714.999C777.911 724.603 840.718 684.425 851.538 625.258Z" fill="white" stroke="#231F20" stroke-miterlimit="10"/>
<path d="M1209.04 468.308C1209.51 469.984 1205.73 469.565 1205.73 470.403C1216.12 488.003 1216.12 503.927 1222.73 522.365L1198.18 521.108L1176.46 449.87L1146.25 398.327C1146.25 406.289 1154.75 413.832 1158.05 420.956C1162.77 432.27 1168.91 450.708 1173.63 462.022C1178.35 473.336 1176.46 469.565 1178.35 474.175C1181.19 482.136 1198.18 510.213 1183.07 509.794C1185.43 501.832 1145.31 403.775 1139.17 406.289L1180.24 506.86C1177.88 516.917 1159 509.793 1160.41 519.013C1163.72 522.784 1183.55 511.47 1183.55 521.946C1171.74 524.46 1164.19 528.232 1155.69 519.013C1157.58 492.613 1141.06 501.413 1150.97 523.203L1132.56 524.46L1148.14 514.822H1129.73C1111.79 443.584 1063.16 372.765 1002.26 323.737C941.361 274.708 945.61 299.432 968.27 279.737C993.291 297.756 980.073 275.965 964.494 270.937H970.631L980.545 253.756C1014.06 274.708 1046.17 298.594 1074.02 325.832C1089.6 340.918 1101.87 359.356 1118.87 373.603C1092.43 337.565 1060.8 304.88 1023.98 277.223C987.154 249.565 981.489 252.918 981.489 249.146C981.489 245.375 984.794 244.537 985.266 244.537C989.042 243.699 1040.5 281.832 1047.11 286.861C1079.68 313.261 1101.4 348.46 1128.31 372.346C1155.22 396.232 1133.03 376.537 1133.03 372.346C1090.54 315.356 1035.78 266.746 969.687 231.546L975.824 213.108C1015.95 233.642 1058.44 257.527 1091.49 287.699C1137.75 330.022 1188.27 399.165 1205.73 454.898C1223.2 510.632 1209.98 454.898 1210.46 456.155C1210.93 457.413 1209.98 465.794 1210.46 467.889L1209.04 468.308Z" fill="#ACBFCD"/>
<path d="M394.675 962.783C330.47 917.107 278.539 857.602 248.325 796.422C218.111 735.241 222.832 745.298 225.193 740.269C228.969 731.888 234.635 746.136 234.635 749.907C230.858 728.117 222.36 705.908 217.639 682.022C221.888 682.441 244.076 680.765 245.493 682.86C246.909 684.955 242.66 685.374 244.076 688.308C250.214 701.298 252.102 719.317 256.351 730.631C260.6 741.946 277.595 781.755 281.844 780.498C278.067 770.022 246.909 693.336 250.214 689.565C253.518 685.793 258.239 688.308 259.656 689.565C261.072 690.822 258.239 693.336 258.239 693.755C264.849 705.908 267.209 726.86 271.93 739.012C276.651 751.165 287.509 771.698 289.87 771.279L261.544 688.308C265.321 685.374 282.788 686.631 283.732 686.212C284.677 685.793 288.926 670.708 291.286 669.87C295.063 668.193 310.642 668.612 310.642 673.222C310.642 677.831 286.093 673.222 292.23 681.603H312.058L316.779 707.584C331.886 745.298 354.075 793.069 386.177 830.783C418.28 868.498 422.056 862.631 421.584 865.145C421.112 867.66 407.894 876.879 406.949 876.879C404.589 876.879 393.731 864.307 390.898 872.269C388.065 880.231 407.421 889.869 410.726 892.802L394.675 904.536L329.054 836.65C329.054 839.164 327.165 838.326 328.109 841.26C329.054 844.193 351.714 870.174 355.019 873.526C360.684 879.393 398.452 909.145 397.979 911.659C397.507 914.174 390.898 915.85 389.482 915.012C360.212 888.193 332.358 859.698 310.642 827.431L308.281 832.041C323.388 851.317 338.496 873.107 355.963 890.707C373.431 908.307 405.061 928.84 405.533 931.774C406.005 934.707 398.924 937.64 397.979 940.155C395.147 946.44 389.01 959.85 394.675 962.783Z" fill="#ACBFCD"/>
<path d="M512.227 189.223L524.501 205.566C433.387 244.537 376.735 284.347 316.307 360.194C308.753 360.194 301.2 353.909 296.479 349.299C351.242 277.642 423.001 224.423 512.227 189.223Z" fill="#3C4D59"/>
<path d="M559.908 172.88L569.35 188.804C554.715 195.508 539.136 199.699 524.501 205.985L512.227 189.642C529.694 182.518 541.496 178.327 559.908 173.299V172.88Z" fill="#4F5F6A"/>
<path d="M316.307 360.194C312.53 365.223 296.007 391.203 294.118 391.623C290.814 392.461 277.123 384.08 273.346 381.984C280.9 369.832 287.509 360.613 296.479 349.299C301.2 353.908 308.753 360.613 316.307 360.194Z" fill="#4F5F6A"/>
<path d="M974.88 213.947L968.743 232.385C1034.84 267.585 1089.6 316.194 1132.09 373.184C1132.09 377.375 1129.26 374.441 1127.37 373.184C1100.46 349.299 1078.74 314.099 1046.17 287.699C1013.59 261.299 988.099 244.537 984.322 245.375C980.545 246.213 980.545 249.985 980.545 249.985C980.545 253.756 1017.84 274.289 1023.03 278.061C1059.86 305.718 1091.49 338.403 1117.92 374.441C1100.93 360.194 1088.65 341.756 1073.08 326.67C1045.22 299.851 1013.59 275.965 979.601 254.594L969.687 271.775H963.55C979.129 277.223 992.82 298.594 967.327 280.575C944.666 300.27 986.21 312.003 1001.32 324.575C1062.22 373.603 1110.37 444.003 1128.78 515.66H1147.19L1131.62 525.298L1150.03 524.041C1140.11 502.251 1156.64 493.451 1154.75 519.851C1163.25 528.651 1170.8 525.298 1182.6 522.784C1182.6 512.727 1162.77 523.622 1159.47 519.851C1158.53 510.632 1177.41 517.755 1179.3 507.698L1138.22 407.127C1144.36 404.613 1184.49 502.67 1182.13 510.632C1197.24 511.051 1180.24 482.975 1177.41 475.013C1174.58 467.051 1174.58 467.051 1172.69 462.86C1167.97 451.546 1162.3 433.108 1157.11 421.794C1151.92 410.479 1145.78 407.127 1145.31 399.165L1175.52 450.708L1197.24 521.946L1221.79 523.203C1215.18 504.765 1215.18 488.841 1204.79 471.241C1204.79 470.403 1208.57 471.241 1208.1 469.146L1223.67 497.222C1224.62 503.089 1225.09 512.308 1226.98 517.755C1228.87 523.203 1231.23 517.755 1231.7 519.013C1252.94 603.66 1236.42 720.155 1194.88 798.098C1049.47 1071.32 661.881 1154.29 394.203 963.202C388.538 960.269 394.203 946.859 397.508 940.574C400.812 934.288 405.061 933.869 405.061 932.193C405.061 929.259 361.628 896.993 355.491 891.126C337.552 873.526 322.917 851.736 307.81 832.46L310.17 827.85C331.414 860.536 359.268 888.612 389.01 915.431C390.426 916.269 397.508 912.497 397.508 912.078C397.508 909.564 359.74 879.812 354.547 873.945C349.354 868.078 328.11 843.774 327.638 841.679C326.693 838.745 328.11 839.164 328.582 837.069L394.203 904.955L410.254 893.221C406.477 890.288 389.01 876.04 390.426 872.688C393.731 864.726 404.117 877.717 406.477 877.298C408.838 876.878 421.112 866.402 421.112 865.564C421.112 863.469 389.482 835.812 385.705 831.202C353.603 793.488 331.414 745.717 316.307 708.003L311.586 682.022H291.758C285.621 674.06 310.17 678.25 310.17 673.641C310.17 669.031 294.591 668.612 290.814 670.288C287.037 671.965 284.205 686.212 283.261 686.631C282.316 687.05 264.377 685.793 261.072 688.726L289.398 771.698C287.509 772.536 273.347 743.622 271.458 739.431C266.265 727.279 264.377 706.326 257.767 694.174C251.158 682.022 260.6 691.66 259.184 689.984C257.767 688.307 250.686 688.726 249.742 689.984C246.437 693.755 277.595 770.441 281.372 780.917C277.123 782.174 257.767 736.079 255.879 731.05C251.63 719.736 249.742 701.298 243.605 688.726C237.467 676.155 245.493 683.279 245.021 683.279C243.605 681.603 221.416 683.279 217.167 682.441C196.395 578.517 215.279 474.175 272.875 382.822C276.651 384.918 290.342 393.299 293.647 392.46C296.951 391.622 312.058 366.061 315.835 361.032C376.263 285.184 433.387 245.375 524.029 206.404C614.671 167.432 554.243 195.928 568.878 189.223L559.436 173.299C706.73 130.975 842.693 147.318 974.408 214.366L974.88 213.947Z" fill="#7F919B"/>
<path d="M954.58 595.698C956.94 632.574 948.914 668.193 930.031 701.298C900.761 751.164 843.637 789.298 781.793 801.031C719.948 812.764 759.132 806.06 747.802 806.479C677.46 810.25 610.422 786.364 562.741 740.688C515.059 695.012 549.05 726.022 542.913 717.222C545.273 709.26 561.796 696.688 570.766 696.688C670.378 830.783 887.07 779.66 916.34 617.489C945.61 455.317 918.228 605.755 918.7 599.889C932.863 599.889 943.249 607.012 955.052 595.698H954.58Z" fill="url(#paint0_linear_60_106)"/>
<path d="M825.226 424.727L808.23 453.642C693.983 408.804 557.076 470.822 541.496 582.289C537.72 580.613 542.913 578.517 536.776 578.936C527.806 578.936 513.171 583.546 502.785 583.546C506.561 547.508 523.557 508.118 549.05 479.622C563.685 463.699 596.732 438.975 617.032 428.918C683.125 397.07 758.188 396.651 825.226 424.727Z" fill="url(#paint1_linear_60_106)"/>
<path d="M1168.91 822.822C1116.04 913.336 1027.28 988.764 915.868 1025.64C804.453 1062.52 820.977 1052.88 796.428 1052.88C771.879 1052.88 780.849 1045.75 784.153 1035.28C938.056 1020.61 1079.21 935.126 1152.86 814.86L1168.91 823.241V822.822Z" fill="#3C4D59"/>
<path d="M1168.91 822.822L1152.86 814.441C1079.21 934.707 938.056 1019.77 784.153 1034.86C780.849 1045.75 781.793 1052.88 796.428 1052.46C821.449 1052.46 890.847 1033.6 915.868 1025.22C844.581 1051.62 762.437 1064.61 685.485 1056.65C692.095 1055.39 732.695 1057.91 735.055 1056.65C737.416 1055.39 735.055 1041.14 736 1039.47C736.944 1037.79 778.016 1036.95 762.909 1033.18C747.802 1029.41 754.411 1037.37 756.772 1031.93C760.548 1030.25 769.99 1033.6 772.351 1033.18C813.423 1028.57 855.44 1019.77 897.456 1004.27C939.473 988.764 923.893 999.24 906.898 997.564C889.903 995.888 858.744 1013.49 849.774 1015.16C840.805 1016.84 791.707 1027.32 781.793 1026.06C771.879 1024.8 781.793 1022.71 780.376 1021.87C778.96 1021.03 771.879 1026.06 774.239 1020.61C780.376 1022.71 786.042 1019.35 786.514 1019.35C949.859 996.726 1071.19 928.84 1148.14 788.879C1225.09 648.917 1165.61 753.679 1165.13 771.279L1132.56 826.174C1139.64 835.812 1142 816.536 1148.14 815.279L1170.33 770.86C1180.24 772.536 1165.13 787.622 1166.55 789.298C1167.97 790.974 1184.49 793.488 1184.96 797.679C1185.43 801.869 1171.74 819.469 1169.38 822.822H1168.91Z" fill="#4F5F6A"/>
<path d="M748.274 806.479C759.132 806.06 771.407 803.127 782.265 801.031C785.57 805.641 785.57 819.469 790.763 820.307C791.235 819.05 797.844 816.117 798.316 816.117C861.577 802.708 910.675 763.317 942.305 717.641C946.082 719.736 955.052 710.517 956.94 710.936C960.717 711.355 958.829 717.222 963.077 715.127C967.326 713.031 963.077 711.355 964.494 710.936C965.91 710.517 973.463 718.06 976.296 718.479C967.798 727.698 964.022 740.27 956.468 749.908C912.563 804.803 836.084 844.193 769.046 853.412C702.009 862.631 763.853 851.736 759.604 852.155C755.356 852.574 756.3 857.603 752.051 855.088C741.193 847.965 761.493 846.707 761.965 846.288C764.797 844.193 757.244 837.488 757.244 836.65C757.244 835.812 770.463 831.622 769.518 825.755L747.33 827.85L748.274 807.317V806.479Z" fill="#3C4D59"/>
<path d="M1030.11 728.536C1026.81 733.565 1006.98 762.06 1022.56 757.45C979.601 834.136 877.628 894.479 786.042 907.888C784.625 907.888 780.848 906.212 776.6 906.631C772.351 907.05 776.6 909.145 774.239 909.564C778.96 894.06 747.802 905.793 737.416 904.117C734.111 895.736 731.278 902.86 722.781 898.669C734.111 897.412 745.441 900.764 756.772 899.926C768.102 899.088 760.076 896.155 764.325 895.736C768.574 895.317 763.853 899.088 769.046 898.669C865.826 889.45 982.433 823.66 1021.14 733.565C1059.86 643.47 1033.42 723.089 1024.92 719.317C990.459 792.65 913.035 860.117 826.17 882.326C816.256 884.841 771.879 893.641 764.325 893.222C756.772 892.802 761.965 889.45 761.02 889.031C758.188 888.193 751.106 891.545 753.467 887.774C762.909 887.774 773.767 888.612 781.321 887.774C788.874 886.936 781.321 885.26 782.737 884.841C786.041 884.422 787.458 886.517 790.29 886.098C798.788 884.841 841.749 873.945 848.83 869.755C855.912 865.564 854.023 865.564 849.774 864.307C940.889 831.203 970.159 785.107 1016.42 715.127C1062.69 645.146 1017.84 709.26 1017.84 708.841C1019.26 707.165 1032 704.65 1033.89 705.489C1037.2 706.327 1039.56 715.965 1045.69 714.289C1046.64 721.412 1042.86 711.774 1036.25 715.546C1029.64 719.317 1031.53 726.022 1030.11 728.536Z" fill="#3C4D59"/>
<path d="M330.942 672.384C331.414 672.384 336.135 676.994 336.135 676.994C336.135 677.832 336.607 689.565 337.551 692.079C353.131 736.079 376.735 783.012 410.254 821.984C443.773 860.955 438.108 846.288 438.108 847.965C438.108 849.641 423.473 861.793 420.168 859.698C365.405 809.831 329.526 745.298 313.002 676.994C313.475 675.317 329.998 671.965 330.942 672.384Z" fill="#ACBFCD"/>
<path d="M942.305 717.641C910.203 763.317 861.105 802.707 798.316 816.117C735.527 829.526 791.235 819.05 790.763 820.307C785.57 819.888 785.57 805.641 782.265 801.031C844.109 788.879 901.233 751.164 930.503 701.298C938.056 704.65 942.305 708.841 950.331 704.65C947.026 708.422 945.61 713.45 942.777 717.641H942.305Z" fill="#3C4D59"/>
<path d="M1132.09 773.793C1069.77 894.059 938.057 980.802 796.428 997.145C783.681 1002.17 761.493 1003.43 738.36 1003.85C736.472 1003.43 722.781 994.212 724.67 992.116C730.335 992.116 736 990.44 741.665 990.021C841.277 980.802 906.898 967.812 988.571 913.336L991.875 917.526C933.336 956.916 849.303 985.831 781.321 994.212C771.879 995.469 756.3 991.697 748.274 997.564C891.319 994.631 1032.48 919.202 1104.71 809.831C1108.95 803.545 1117.45 790.555 1120.29 783.85C1123.12 777.145 1122.65 780.079 1118.87 779.241C1123.12 772.955 1133.03 762.06 1138.7 757.45C1136.81 762.479 1134.92 769.183 1132.56 773.793H1132.09Z" fill="#4F5F6A"/>
<path d="M436.691 790.136C414.503 764.155 384.761 708.422 379.568 676.574C374.375 644.727 376.263 670.288 378.624 666.936C380.04 666.098 397.035 668.193 396.563 662.327C388.538 659.393 373.431 670.707 376.735 659.393C383.817 657.298 392.787 659.393 396.563 652.688C400.34 663.584 399.396 676.574 402.701 687.05C409.782 710.098 435.275 755.355 450.382 774.631C465.489 793.907 472.099 792.231 470.21 796.421C468.322 800.612 455.103 803.545 454.159 808.155C448.966 802.288 441.412 796.002 436.219 790.555L436.691 790.136Z" fill="#ACBFCD"/>
<path d="M370.126 680.765C386.177 727.279 395.619 752.422 428.666 794.326C461.712 836.231 443.773 811.507 451.799 819.469C443.301 822.403 443.301 832.041 433.387 826.174C423.473 820.307 399.396 786.365 394.675 779.66C373.431 747.812 358.796 710.517 348.41 674.06C349.354 670.708 365.405 669.031 366.349 669.45C367.766 670.289 369.654 678.25 370.126 680.346V680.765Z" fill="#ACBFCD"/>
<path d="M775.656 977.45C922.005 957.755 1021.62 897.412 1094.79 784.27L1104.23 786.365C1102.35 787.203 1098.57 790.555 1098.1 791.812C1043.33 896.155 901.705 973.26 787.458 981.221C673.211 989.183 776.6 988.345 775.656 977.031V977.45Z" fill="#3C4D59"/>
<path d="M617.032 428.499C596.731 438.137 563.685 462.861 549.05 479.204L527.333 468.727C559.908 433.527 603.813 408.804 651.495 392.88C668.49 421.375 633.083 412.994 616.559 428.499H617.032Z" fill="#3C4D59"/>
<path d="M1060.33 736.917C1061.27 736.498 1064.58 736.917 1066.47 736.917C1067.88 742.784 1063.63 742.365 1062.69 744.46C1011.7 854.669 894.624 918.364 773.295 936.802C763.853 930.936 729.39 947.698 736.472 931.355C859.217 926.745 969.215 871.85 1034.84 780.079C1100.46 688.308 1057.97 738.174 1060.33 736.917Z" fill="#3C4D59"/>
<path d="M613.255 252.08C614.671 252.08 617.504 251.661 618.448 252.918C618.448 255.432 618.448 260.042 616.087 261.718C613.727 263.394 602.397 262.556 600.508 262.975C515.059 292.308 451.798 330.861 393.258 397.908C334.719 464.955 382.872 416.765 380.984 418.441C376.263 423.051 373.43 421.375 367.293 419.698C406.005 363.965 461.712 314.937 526.861 283.508C592.01 252.08 602.869 252.08 613.255 252.08Z" fill="#3C4D59"/>
<path d="M1127.37 747.812C1088.65 819.05 1062.22 864.307 988.57 913.336C906.898 967.812 841.277 980.802 741.665 990.021C737.888 985.412 732.695 991.278 736.472 980.383C749.218 979.126 762.909 979.545 775.656 977.45C776.6 988.764 786.514 981.64 787.458 981.64C901.705 973.678 1043.33 896.155 1098.1 792.231C1152.86 688.308 1102.35 787.622 1104.23 786.784L1094.79 784.688C1098.1 779.66 1108.01 758.288 1110.37 756.612C1115.09 752.841 1116.04 757.031 1120.28 755.774C1124.53 754.517 1121.23 743.203 1127.37 747.393V747.812Z" fill="#4F5F6A"/>
<path d="M495.703 221.909C515.059 219.814 485.789 231.966 484.845 232.804C480.124 236.575 485.789 237.833 483.429 239.509C466.905 251.661 441.884 261.718 423.473 275.128C370.126 313.261 326.693 362.289 295.535 415.927C290.814 415.927 298.367 401.68 299.312 400.004C305.921 387.432 321.028 373.185 324.805 361.032L319.612 360.194C348.882 324.575 382.872 291.052 422.056 263.813C461.24 236.575 488.622 222.328 496.175 221.49L495.703 221.909Z" fill="#3C4D59"/>
<path d="M937.584 529.908C940.889 537.451 944.666 545.413 947.026 553.375C951.275 567.203 954.108 581.451 954.58 595.699C942.777 607.013 932.391 599.889 918.228 599.889C917.756 605.756 916.812 611.622 915.868 617.489C917.284 595.279 915.396 575.584 908.314 554.632C913.035 549.184 922.477 547.508 926.726 542.899C930.975 538.289 923.894 539.965 925.31 538.708C927.198 536.613 934.752 530.746 937.584 529.908Z" fill="#607078"/>
<path d="M422.528 401.261C433.859 405.87 435.275 394.556 440.94 389.527C488.622 347.623 519.308 330.861 574.543 302.785C629.778 274.709 587.29 307.813 581.624 294.404C590.594 291.471 617.976 279.318 625.529 283.509C633.083 287.699 626.473 289.375 631.667 290.213C535.831 313.68 451.798 368.575 403.172 446.099C398.924 439.813 410.726 429.756 410.254 428.918C409.31 427.242 404.117 428.918 403.172 428.08C399.396 425.566 419.224 404.613 422.528 400.842V401.261Z" fill="#4F5F6A"/>
<path d="M544.329 643.47C546.689 649.336 548.106 656.041 550.466 661.07C541.968 668.612 523.085 669.031 519.78 678.67C516.947 672.384 514.115 667.355 512.226 661.07C508.922 651.432 506.089 642.212 504.673 632.155L539.608 623.774C539.608 632.155 542.44 636.346 544.801 643.051L544.329 643.47Z" fill="#72818A"/>
<path d="M1138.22 757.45C1132.56 762.06 1122.65 772.955 1118.4 779.241C1075.44 839.164 1060.33 871.431 991.875 917.526L988.57 913.336C1062.22 863.888 1088.65 819.05 1127.37 747.812C1133.03 736.917 1131.62 740.688 1145.31 742.365C1147.19 744.041 1139.17 755.355 1138.22 757.45Z" fill="#607078"/>
<path d="M581.624 294.404C587.29 307.394 575.959 301.947 574.543 302.785C519.78 330.861 489.094 348.042 440.94 389.527C392.786 431.013 433.859 405.87 422.528 401.261C462.656 353.489 518.836 316.194 581.152 294.404H581.624Z" fill="#3C4D59"/>
<path d="M889.903 946.021C889.903 940.993 883.765 944.345 890.847 940.574C973.936 891.964 1016.42 883.164 1073.55 801.031C1074.96 801.869 1079.68 803.126 1079.68 804.384C1080.63 811.088 1014.54 875.622 1005.09 883.164C971.575 909.145 930.031 931.355 890.375 946.021H889.903Z" fill="#3C4D59"/>
<path d="M436.691 790.136C432.915 787.203 433.859 793.069 429.138 794.326C396.091 752.003 386.649 727.279 370.598 680.765L380.04 676.574C385.233 708.841 414.975 764.574 437.164 790.136H436.691Z" fill="#ACBFCD"/>
<path d="M1043.33 787.202C1045.69 786.364 1048.05 788.46 1050.42 789.298C1029.17 817.793 1005.57 844.612 975.824 866.821C946.082 889.031 932.863 892.383 907.842 903.698C882.821 915.012 866.298 927.583 866.77 917.945C923.422 896.993 974.88 865.145 1015.01 823.66C1055.14 782.174 1040.97 788.041 1043.33 787.202Z" fill="#3C4D59"/>
<path d="M337.079 665.679C346.993 664.422 343.216 674.479 344.161 676.155C361.628 718.06 371.07 757.031 402.7 798.098C434.331 839.165 437.635 832.879 435.747 834.555C427.249 837.488 420.64 827.431 414.975 821.565C374.847 780.498 348.409 718.898 337.079 666.098V665.679Z" fill="#ACBFCD"/>
<path d="M857.328 441.07C853.079 451.965 835.612 456.575 837.5 468.308C831.363 464.537 814.839 455.737 808.23 453.222L825.225 424.308C837.5 429.337 846.47 433.946 857.8 440.651L857.328 441.07Z" fill="#3C4D59"/>
<path d="M896.04 471.242C877.156 453.642 874.323 470.823 857.328 481.718C863.465 485.908 866.77 490.518 871.019 495.965C859.688 488.003 848.83 475.851 837.028 468.727C835.612 456.994 852.607 452.384 856.856 441.489H858.272C870.075 449.032 885.182 461.604 895.096 471.661L896.04 471.242Z" fill="#607078"/>
<path d="M380.984 384.918C418.279 340.918 466.433 301.946 521.196 275.546L522.14 282.251C478.708 303.203 436.219 334.213 402.7 366.48C369.182 398.746 389.954 389.946 380.984 384.918Z" fill="#3C4D59"/>
<path d="M541.496 581.87C540.08 590.67 539.608 597.794 540.08 606.594H501.368C501.368 598.632 502.312 591.089 502.784 583.127C513.171 583.127 527.805 578.937 536.775 578.518C545.745 578.099 537.719 580.194 541.496 581.87Z" fill="#4F5F6A"/>
<path d="M540.08 606.594C540.08 619.165 542.44 631.318 544.801 643.47C541.968 636.765 539.136 632.575 539.608 624.194L504.673 632.575C503.257 624.613 501.84 614.556 501.368 606.594H540.08Z" fill="#607078"/>
<path d="M539.136 301.527H545.273V305.718L500.424 327.508C492.398 336.308 480.124 340.918 471.154 348.042C462.184 355.165 437.635 381.984 434.803 382.823C423.945 386.175 430.554 378.213 433.387 374.442C443.773 361.451 524.029 302.366 539.136 301.108V301.527Z" fill="#3C4D59"/>
<path d="M774.239 909.145C769.518 909.564 739.776 911.66 737.888 910.403C736 909.145 737.888 905.374 736.944 903.698C747.33 905.374 778.488 893.641 773.767 909.145H774.239Z" fill="#4F5F6A"/>
<path d="M1022.56 757.45C1006.98 762.479 1027.28 733.565 1030.11 728.536L1040.97 729.374L1022.56 757.45Z" fill="#4F5F6A"/>
<path d="M455.575 646.403C465.489 649.755 439.052 656.879 435.747 657.298C419.224 659.393 384.289 654.365 428.193 650.593C472.098 646.822 428.193 653.527 431.498 653.527C434.803 653.527 455.103 646.403 456.047 646.822L455.575 646.403Z" fill="#ACBFCD"/>
<path d="M1090.54 743.622C1089.28 742.784 1088.18 741.806 1087.24 740.689C1082.99 735.66 1087.71 712.612 1100.46 717.222L1090.54 743.203V743.622Z" fill="#607078"/>
<path d="M415.919 939.317C424.417 938.479 413.087 971.164 408.366 970.745C398.452 970.326 414.031 939.317 415.919 939.317Z" fill="#ACBFCD"/>
<path d="M958.356 276.804C961.189 276.804 962.133 279.318 963.549 280.156C932.863 306.556 952.691 277.223 958.356 276.804Z" fill="#ACBFCD"/>
<path d="M437.163 836.65C439.996 835.812 445.661 840.841 445.661 841.26C442.828 847.545 427.721 839.584 437.163 836.65Z" fill="#ACBFCD"/>
<path d="M252.102 676.574L256.823 683.279L248.325 682.441L252.102 676.574Z" fill="#ACBFCD"/>
<path d="M975.352 241.185C988.098 242.023 965.438 252.918 970.631 244.118C975.824 235.318 974.879 241.185 975.352 241.185Z" fill="#ACBFCD"/>
<path d="M398.924 915.85C407.894 913.336 402.701 922.555 400.34 922.555C397.98 922.555 393.731 917.107 398.924 915.85Z" fill="#ACBFCD"/>
<path d="M1185.43 516.499L1193.93 517.337C1190.16 521.527 1185.91 522.784 1185.43 516.499Z" fill="#ACBFCD"/>
<path d="M1048.05 706.746C1049.47 706.746 1049 712.193 1048.05 712.193C1047.11 712.193 1047.11 706.746 1048.05 706.746Z" fill="#3C4D59"/>
<path d="M896.04 471.241C913.508 488.422 927.67 508.536 937.584 529.908C934.28 530.746 927.198 537.032 925.31 538.708C923.422 540.384 928.142 541.641 926.726 542.898C922.005 547.089 913.035 549.184 908.315 554.632C900.289 531.165 887.07 515.241 871.491 495.965C855.912 476.689 863.465 485.908 857.8 481.717C874.324 470.822 877.628 453.641 896.512 471.241H896.04Z" fill="#7F919B"/>
<path d="M947.026 553.375C944.666 545.413 941.361 537.87 937.584 529.908C927.67 508.118 913.507 488.422 896.04 471.242C878.572 454.061 871.019 448.613 859.216 441.07C856.384 430.175 877.628 423.051 879.989 420.537C884.238 415.927 885.182 410.48 889.903 404.613C894.624 398.746 903.593 395.813 903.593 394.975C903.593 394.137 894.152 392.042 906.898 381.146C919.645 370.251 915.868 375.28 922.477 376.956C909.259 372.766 922.949 357.261 929.559 354.327C936.168 351.394 946.082 367.737 951.747 363.127C957.412 358.518 936.64 347.623 935.696 347.204C928.614 347.204 916.812 360.613 910.203 363.127C910.203 350.556 927.67 348.461 933.335 342.594C939.001 336.728 930.975 340.918 931.919 339.661C948.442 320.385 937.584 320.385 926.726 337.566C919.645 337.566 931.919 324.156 931.919 323.318C932.863 320.804 927.67 321.642 928.614 319.128C929.559 316.613 933.808 319.966 933.808 319.966C938.056 316.613 932.863 309.909 934.752 305.718C936.64 301.528 947.498 286.861 951.747 296.08C944.666 294.823 934.752 315.775 943.249 314.518C951.747 313.261 955.052 298.175 956.94 298.175C962.605 298.175 1023.98 348.88 1031.53 356.423C1077.8 401.68 1108.01 457.413 1122.65 511.051C1137.28 564.689 1126.42 516.08 1127.37 516.499L1108.01 521.108C1099.98 534.099 1126.42 519.432 1128.78 523.203L1127.37 527.394C1115.09 529.489 1111.32 529.07 1104.23 538.289C1104.23 534.099 1103.76 522.365 1102.82 519.013C1097.62 501.832 1077.8 454.899 1065.99 435.623C1046.64 404.613 1017.37 372.766 986.682 350.137C982.905 351.813 989.043 357.261 990.459 358.937C996.596 366.061 1011.23 375.699 1018.31 383.661C1056.08 425.984 1084.41 475.851 1097.15 528.651L1076.38 530.746L1077.8 526.556L1091.02 521.946C1087.71 522.784 1072.6 521.108 1071.66 521.108C1070.24 521.108 1071.66 524.879 1070.24 525.299C1061.75 527.813 1040.97 532.841 1040.97 540.384C1037.67 530.327 1039.08 517.756 1028.7 513.146L1031.06 524.879C1031.06 525.718 1014.54 521.108 1015.48 527.813C1016.42 534.518 1038.14 524.46 1033.42 539.546L1030.11 534.099C1027.75 534.099 1014.06 534.937 1013.12 535.356C1012.18 535.775 1011.23 542.06 1009.81 542.06C1008.4 542.06 1009.81 537.87 1003.68 539.127C984.794 543.737 966.382 549.184 947.498 552.956L947.026 553.375Z" fill="#ACBFCD"/>
<path d="M941.833 316.613C945.138 316.194 946.554 325.832 943.249 326.251C939.945 326.671 938.528 317.032 941.833 316.613Z" fill="#7F919B"/>
<path d="M570.767 697.108C561.797 697.108 545.273 709.679 542.913 717.641C532.055 703.812 526.862 695.431 519.78 679.508C523.557 669.451 541.969 669.032 550.466 661.908C555.66 673.641 562.741 687.051 570.294 697.527L570.767 697.108Z" fill="#607078"/>
<path d="M512.227 661.489C514.115 667.774 517.42 673.222 519.78 679.089C526.862 695.012 532.055 703.393 542.913 717.222C553.771 731.05 555.187 733.146 562.741 740.688L555.659 736.498L475.403 785.945C440.468 751.165 419.224 707.165 408.366 661.908C414.975 655.203 431.498 661.908 435.275 661.07C439.052 660.231 441.884 657.298 442.829 656.879C445.661 656.46 457.464 655.622 458.408 655.622C460.296 654.784 458.408 651.012 459.352 651.012C461.712 649.755 465.489 651.012 466.433 650.174C468.322 648.917 466.433 645.565 467.85 644.727C469.266 643.889 467.85 648.079 472.571 647.66C477.292 647.241 501.368 638.86 504.201 641.374C507.034 643.889 505.617 660.651 511.755 661.07L512.227 661.489Z" fill="#ACBFCD"/>
<path d="M549.995 732.727C551.883 732.727 554.243 734.403 553.771 736.079C533.471 749.488 510.811 760.384 489.094 771.698L549.995 732.727Z" fill="#7F919B"/>
<path d="M474.931 458.67L465.489 460.765C461.712 457.413 470.682 447.775 470.21 446.937C462.657 436.88 450.854 465.794 448.494 464.537C453.215 449.451 446.605 459.927 443.773 452.384L454.631 436.041C444.717 428.08 433.859 459.508 429.138 459.927C423.001 454.479 449.438 435.622 432.442 436.46C415.447 437.299 392.786 474.594 410.254 442.746C444.245 380.727 553.299 309.908 623.641 298.175C693.983 286.442 633.555 291.051 639.22 296.918L606.173 305.718C610.422 314.099 651.022 293.566 652.439 301.527L629.306 308.232L636.388 317.032C586.818 332.118 522.141 356.842 486.733 392.461C451.326 428.08 473.515 403.775 480.596 406.289C505.617 382.403 531.582 364.803 562.269 350.137C592.955 335.47 596.732 334.213 620.808 328.346C644.885 322.48 646.774 315.775 651.495 325.413C605.701 331.28 555.187 353.489 518.836 378.632C482.484 403.775 473.987 411.737 494.759 405.451C520.724 379.051 554.715 363.127 588.234 345.946C594.371 346.365 641.581 330.023 642.997 335.47C644.413 340.918 613.255 343.432 658.576 343.851C598.62 354.327 534.887 384.08 495.231 425.984C455.575 467.889 474.459 449.87 472.098 456.156C469.738 462.441 475.403 456.156 475.403 458.251L474.931 458.67Z" fill="#4F5F6A"/>
<path d="M586.818 320.385C594.371 320.385 590.594 326.67 586.818 330.023C583.041 333.375 572.183 332.956 569.822 334.213C544.801 346.785 515.531 364.385 494.287 380.728C473.043 397.07 463.129 411.318 460.296 412.156C457.936 412.156 454.159 412.156 453.215 410.061C451.326 405.451 496.647 368.994 503.257 364.385C509.866 359.775 579.264 320.385 586.345 320.385H586.818Z" fill="#3C4D59"/>
<path d="M594.371 350.556C618.448 350.137 581.624 361.032 580.68 361.451C579.736 361.87 578.792 365.641 575.959 366.899C570.294 369.832 566.517 371.508 560.38 375.279C534.887 389.527 508.922 403.356 490.982 425.984L483.901 422.632C480.596 412.575 578.32 350.975 594.371 350.556Z" fill="#3C4D59"/>
<path d="M1090.54 743.622C1094.79 746.136 1102.82 746.974 1102.82 751.165C1102.82 757.87 1079.21 793.069 1073.55 801.031C1016.42 883.584 973.936 892.384 890.847 940.574C807.758 988.764 889.903 940.993 889.903 946.022C859.689 957.336 820.977 968.231 796.428 972.002C771.879 975.774 788.874 967.812 786.986 973.26C772.351 974.517 756.3 973.26 742.137 974.517C727.974 975.774 739.776 977.45 738.832 977.45C736.944 976.612 738.832 972.002 737.416 970.745C736 969.488 717.116 974.936 715.228 968.65C717.588 968.231 730.807 966.974 731.279 966.555C733.167 965.298 731.279 961.526 732.695 959.85C734.111 958.174 738.36 960.688 739.776 959.012C741.193 957.336 736.472 955.241 738.832 954.402C741.193 953.564 751.107 956.079 755.828 955.66C868.658 948.536 1003.68 881.488 1066.47 779.66C1129.25 677.832 1079.68 753.26 1086.29 740.689C1087.24 741.806 1088.34 742.784 1089.6 743.622H1090.54Z" fill="#4F5F6A"/>
<path d="M1074.02 775.05C1075.91 774.212 1081.57 776.726 1082.52 778.403C1083.46 780.079 1076.38 785.526 1074.96 788.041C1073.55 790.555 1072.13 797.26 1071.66 797.679C1068.83 801.869 1057.02 813.184 1053.25 818.212C992.82 892.802 870.547 964.04 779.433 962.783C778.488 962.783 774.24 970.745 773.295 957.336C884.71 944.345 982.906 893.221 1048.53 812.764C1114.15 732.307 1071.66 775.888 1074.02 775.05Z" fill="#3C4D59"/>
<path d="M738.832 1003.85C761.493 1003.01 783.681 1002.17 796.9 997.145C938.528 981.221 1069.77 894.059 1132.56 773.793C1141.53 774.631 1136.34 762.479 1145.78 762.898C1155.22 763.317 1153.33 771.698 1150.97 777.145C1108.48 895.317 910.675 1016.84 772.351 1018.94C761.965 1018.94 766.214 1014.74 764.797 1014.74C755.356 1014.74 730.807 1018.52 723.253 1017.68C715.7 1016.84 719.948 1015.58 721.837 1014.74C737.416 1017.68 731.751 1009.3 734.111 1008.04C736.472 1006.78 747.33 1008.88 749.69 1008.04C758.188 1003.85 740.248 1004.27 739.776 1003.85H738.832Z" fill="#4F5F6A"/>
<path d="M1125.01 794.327C1135.39 790.974 1129.26 804.803 1127.37 808.574C1109.9 849.222 1030.12 918.783 989.515 943.507C948.915 968.231 850.247 1006.78 798.316 1011.81C746.386 1016.84 767.158 1013.07 778.488 1005.11C789.819 997.145 830.419 997.983 840.333 995.469C942.777 971.583 1034.36 915.012 1095.74 838.746C1157.11 762.479 1123.12 795.165 1125.95 794.327H1125.01Z" fill="#3C4D59"/>
<path d="M521.196 275.546C466.433 301.946 418.28 340.918 380.984 384.918C343.689 428.918 357.379 418.441 355.491 417.603C353.603 416.765 356.907 408.384 347.937 410.899C338.968 413.413 329.998 440.232 326.221 445.26C323.389 442.327 325.749 437.718 327.165 434.784C329.998 428.079 346.993 400.422 351.714 393.718C358.796 383.661 372.959 371.927 380.984 362.289C379.096 362.289 375.791 360.194 375.791 360.194C370.598 361.032 333.303 413.413 329.526 421.794C323.861 419.699 341.8 399.165 342.744 397.908C395.619 315.775 515.059 235.318 613.255 221.908C711.451 208.499 620.808 217.299 626.474 221.07C551.883 235.737 482.013 266.746 425.361 312.004C368.71 357.261 375.791 354.746 376.735 357.68C379.096 366.061 397.035 342.594 398.452 341.337C451.326 293.146 521.669 250.404 590.594 235.318C659.52 220.232 592.011 234.061 600.036 232.385C608.062 230.708 624.585 224.842 625.529 229.032C618.448 233.642 603.813 229.032 610.894 240.766L626.474 235.318L638.748 238.251C598.148 244.537 558.02 257.946 522.141 275.127L521.196 275.546Z" fill="#4F5F6A"/>
<path d="M558.964 247.889C564.629 247.889 564.157 252.499 560.38 256.27C558.02 257.527 544.329 260.042 543.385 260.461C492.399 283.927 443.773 314.937 403.645 353.07C363.517 391.203 371.542 396.232 369.654 379.051C367.765 361.87 441.412 310.746 452.271 303.203C463.129 295.66 545.745 247.889 558.492 248.308L558.964 247.889Z" fill="#3C4D59"/>
<path d="M609.95 198.861C612.783 198.861 619.864 200.537 623.169 200.956L600.98 205.566C598.148 218.975 616.087 208.08 624.113 213.947C511.754 235.318 412.142 296.499 347.465 380.308C282.788 464.118 329.053 410.899 327.637 411.737C325.277 413.413 324.333 411.737 322.916 410.48C329.053 405.87 320.556 403.356 315.835 404.194C311.114 405.032 311.114 415.089 305.921 415.927C301.2 413.832 315.363 398.746 316.779 395.394L313.474 394.137C326.221 385.756 334.247 366.48 344.161 354.327C354.074 342.175 363.988 335.889 372.014 328.347C380.04 320.804 370.126 324.575 370.598 324.156C420.64 275.547 540.08 206.404 609.006 201.794C677.932 197.185 609.006 199.28 610.422 198.861H609.95Z" fill="#4F5F6A"/>
<path d="M541.968 223.166C573.127 221.49 516.475 241.185 514.115 242.442C490.038 254.595 452.27 275.547 431.026 290.214C397.507 313.261 370.126 343.013 347.937 373.604C346.521 370.251 339.439 369.413 339.439 368.994C338.495 366.899 366.349 337.147 370.126 333.375C397.035 305.718 440.94 272.614 475.875 253.337C510.81 234.061 537.719 223.585 541.968 223.166Z" fill="#3C4D59"/>
<path d="M1016.42 714.708C970.159 784.688 940.889 830.784 849.774 863.888C758.66 896.993 774.711 884.841 738.832 879.812C754.411 880.231 747.33 875.203 750.634 872.269C753.939 869.336 767.158 874.784 769.046 866.822C817.672 863.888 884.709 838.326 929.558 801.031C974.407 763.736 961.189 767.927 976.768 751.165C972.991 749.908 972.519 748.651 969.214 751.165C965.91 753.679 954.107 771.279 949.386 775.889C899.344 824.498 834.195 859.279 759.132 864.307C763.853 856.765 788.402 861.374 797.844 854.669C812.007 852.574 831.363 847.965 845.053 842.517C902.177 819.05 954.107 779.241 979.128 729.374C1004.15 679.508 988.57 721.831 982.433 718.898C989.042 713.87 991.403 720.155 995.652 710.517C1005.57 712.612 995.18 715.546 995.652 722.67C1006.51 721.831 1012.65 724.765 1011.7 712.193L1017.84 714.289L1016.42 714.708Z" fill="#4F5F6A"/>
<path d="M843.637 842.098C841.276 839.164 841.276 837.907 844.581 835.393C850.718 830.364 882.821 818.212 894.151 810.669C905.481 803.126 930.974 782.593 942.777 770.441C954.579 758.288 972.519 725.603 981.489 718.898C987.626 721.412 978.656 728.536 978.184 729.374C953.163 778.822 901.232 818.631 844.109 842.517L843.637 842.098Z" fill="#3C4D59"/>
<path d="M980.073 750.327C998.012 751.165 980.073 762.479 976.296 767.508C940.417 818.631 855.44 869.336 793.595 873.526C731.751 877.717 788.874 879.812 781.793 872.688L784.153 869.336C863.937 856.346 937.584 811.507 980.073 750.327Z" fill="#3C4D59"/>
<path d="M991.875 917.526C1060.33 871.431 1074.96 839.164 1118.4 779.241C1122.17 780.079 1120.76 781.755 1119.81 783.85C1116.98 790.555 1108.48 803.545 1104.23 809.831C1032 919.202 891.319 994.212 747.802 997.564C756.299 991.697 771.407 995.469 780.848 994.212C848.83 986.25 932.863 956.917 991.403 917.526H991.875Z" fill="#3C4D59"/>
<path d="M474.931 458.67C495.231 425.565 575.959 366.061 617.504 357.261C659.048 348.461 628.362 356.423 629.306 358.099C624.585 362.289 610.422 360.613 614.671 368.575C629.306 366.48 641.108 357.261 655.743 361.032L635.915 366.48C638.276 373.603 635.915 373.184 644.413 375.28C584.457 388.27 532.527 423.47 498.064 468.308C492.871 465.375 502.313 458.67 501.84 457.832C496.175 450.708 482.485 468.727 481.068 473.756C481.068 462.022 470.21 467.889 475.875 458.67H474.931Z" fill="#4F5F6A"/>
<path d="M599.092 378.213C627.418 377.375 571.711 397.489 569.822 398.746C560.852 404.194 539.608 419.699 531.11 425.984C522.613 432.27 518.364 445.68 515.059 434.784C511.755 423.889 587.762 378.213 599.092 377.794V378.213Z" fill="#3C4D59"/>
<path d="M808.23 453.222C814.84 455.737 831.363 464.537 837.5 468.308C849.303 475.851 860.161 487.584 871.491 495.546C887.07 514.822 900.761 530.746 908.315 554.213C915.868 577.679 917.284 595.279 915.868 617.07C886.598 779.241 670.379 830.365 570.294 696.27C470.21 562.175 555.66 672.384 550.466 660.651C545.273 648.917 546.69 648.498 544.329 643.051C541.969 630.479 540.08 618.746 539.608 606.175C539.136 593.603 539.608 590.251 541.025 581.451C556.604 469.984 693.511 407.965 807.758 452.803L808.23 453.222Z" fill="url(#paint2_linear_60_106)"/>
<path d="M724.198 587.317C751.579 582.708 760.077 616.651 737.888 622.936C715.7 629.222 699.177 591.508 724.198 587.317Z" fill="#841618"/>
<path d="M727.03 591.508C750.163 588.993 751.579 624.612 723.725 618.746C695.872 612.879 711.923 592.765 727.03 591.508Z" fill="white"/>
</g>
<defs>
<linearGradient id="paint0_linear_60_106" x1="906.237" y1="585.306" x2="664.709" y2="818.742" gradientUnits="userSpaceOnUse">
<stop stop-color="#445157"/>
<stop offset="0.6" stop-color="#121619"/>
<stop offset="1" stop-color="#38444A"/>
</linearGradient>
<linearGradient id="paint1_linear_60_106" x1="804.973" y1="466.381" x2="533.149" y2="517.596" gradientUnits="userSpaceOnUse">
<stop stop-color="#374249"/>
<stop offset="0.8" stop-color="#111517"/>
<stop offset="1" stop-color="#272F34"/>
</linearGradient>
<linearGradient id="paint2_linear_60_106" x1="682.653" y1="456.24" x2="739.341" y2="756.104" gradientUnits="userSpaceOnUse">
<stop stop-color="#DE2527"/>
<stop offset="0.4" stop-color="#F0534D"/>
<stop offset="1" stop-color="#E42829"/>
</linearGradient>
<clipPath id="clip0_60_106">
<rect width="1032" height="917" fill="white" transform="translate(209 150)"/>
</clipPath>
</defs>
</svg>
